<mxfile host="Electron" agent="Mozilla/5.0 (Windows NT 10.0; Win64; x64) AppleWebKit/537.36 (KHTML, like Gecko) draw.io/26.2.2 Chrome/134.0.6998.178 Electron/35.1.2 Safari/537.36" version="26.2.2">
  <diagram name="Page-1" id="kiESVtV4mcVQ5gvfMlYE">
    <mxGraphModel dx="1428" dy="849" grid="1" gridSize="10" guides="1" tooltips="1" connect="1" arrows="1" fold="1" page="1" pageScale="1" pageWidth="827" pageHeight="1169" math="0" shadow="0">
      <root>
        <mxCell id="0" />
        <mxCell id="1" parent="0" />
        <mxCell id="6J8uY-2VwsVbMtP1CuWA-1" value="" style="group;movable=0;resizable=0;rotatable=0;deletable=0;editable=0;locked=1;connectable=0;" vertex="1" connectable="0" parent="1">
          <mxGeometry x="79.99999999999997" y="40" width="80.00000000000006" height="800" as="geometry" />
        </mxCell>
        <mxCell id="avx_aP9NcFsT7Y_mbaRg-1" value="" style="endArrow=none;html=1;rounded=0;movable=1;resizable=1;rotatable=1;deletable=1;editable=1;locked=0;connectable=1;entryX=1;entryY=1;entryDx=0;entryDy=0;exitX=0;exitY=1;exitDx=0;exitDy=0;" parent="6J8uY-2VwsVbMtP1CuWA-1" edge="1" target="avx_aP9NcFsT7Y_mbaRg-3" source="avx_aP9NcFsT7Y_mbaRg-3">
          <mxGeometry width="50" height="50" relative="1" as="geometry">
            <mxPoint x="80.00000000000003" y="800" as="sourcePoint" />
            <mxPoint x="80.00000000000003" as="targetPoint" />
          </mxGeometry>
        </mxCell>
        <mxCell id="avx_aP9NcFsT7Y_mbaRg-3" value="Client" style="text;html=1;align=center;verticalAlign=middle;whiteSpace=wrap;rounded=0;rotation=-90;movable=1;resizable=1;rotatable=1;deletable=1;editable=1;locked=0;connectable=1;" parent="6J8uY-2VwsVbMtP1CuWA-1" vertex="1">
          <mxGeometry x="-360" y="360" width="800" height="80" as="geometry" />
        </mxCell>
        <mxCell id="6J8uY-2VwsVbMtP1CuWA-2" value="" style="group;movable=0;resizable=0;rotatable=0;deletable=0;editable=0;locked=1;connectable=0;" vertex="1" connectable="0" parent="1">
          <mxGeometry x="680" y="40" width="80" height="800" as="geometry" />
        </mxCell>
        <mxCell id="avx_aP9NcFsT7Y_mbaRg-2" value="" style="endArrow=none;html=1;rounded=0;movable=1;resizable=1;rotatable=1;deletable=1;editable=1;locked=0;connectable=1;entryX=0;entryY=1;entryDx=0;entryDy=0;exitX=1;exitY=1;exitDx=0;exitDy=0;" parent="6J8uY-2VwsVbMtP1CuWA-2" edge="1" target="avx_aP9NcFsT7Y_mbaRg-4" source="avx_aP9NcFsT7Y_mbaRg-4">
          <mxGeometry width="50" height="50" relative="1" as="geometry">
            <mxPoint y="800" as="sourcePoint" />
            <mxPoint as="targetPoint" />
          </mxGeometry>
        </mxCell>
        <mxCell id="avx_aP9NcFsT7Y_mbaRg-4" value="Server" style="text;html=1;align=center;verticalAlign=middle;whiteSpace=wrap;rounded=0;rotation=90;movable=1;resizable=1;rotatable=1;deletable=1;editable=1;locked=0;connectable=1;" parent="6J8uY-2VwsVbMtP1CuWA-2" vertex="1">
          <mxGeometry x="-360" y="360" width="800" height="80" as="geometry" />
        </mxCell>
      </root>
    </mxGraphModel>
  </diagram>
</mxfile>
